<svg version="1.1" xmlns="http://www.w3.org/2000/svg" xmlns:xlink="http://www.w3.org/1999/xlink" x="0px" y="0px" viewBox="0 0 1000 1000" enable-background="new 0 0 1000 1000" xml:space="preserve">
<g><g transform="translate(0.000000,641.000000) scale(0.100000,-0.100000)"><path d="M5736.3,6122.2c-1.6-215.8-24.8-364.8-86.9-554.2c-178.5-551.1-608.6-981.1-1161.2-1162.8l-133.5-43.5l132,7.8c773.1,46.6,1529.1-475,1782.2-1226.4l46.6-135.1l7.8,243.7c4.7,197.1,15.5,274.8,46.6,397.4c153.7,580.6,602.4,1060.3,1167.4,1251.2l132,43.5l-237.5,9.3c-285.7,9.3-465.7,51.2-703.2,164.6c-201.8,96.3-322.9,178.5-476.6,326c-222,209.6-385,464.2-473.5,734.3l-41.9,132V6122.2z M6000.2,5155c141.3-214.2,402.1-361.7,642.7-361.7h102.5l-128.9-63.7c-268.6-130.4-425.4-358.6-462.6-669.1l-9.3-90l-52.8,110.2c-122.6,256.1-422.3,448.6-697,448.6h-77.6l124.2,60.5c262.4,130.4,428.5,372.6,453.3,666l9.3,111.8l34.2-85.4C5958.3,5235.7,5986.3,5178.3,6000.2,5155z"/><path d="M8307.1,5044.8c-3.1-336.9-163-673.8-419.2-878.7c-119.5-97.8-239.1-164.6-358.6-204.9l-85.4-29.5l170.8-9.3c295-17.1,516.9-111.8,726.5-308.9c133.5-124.2,218.9-248.4,285.6-411.4l51.2-124.2v108.7c1.6,456.4,305.8,897.3,732.7,1063.4l107.1,41.9l-136.6,9.3c-180.1,12.4-293.4,43.5-462.6,125.7c-267,132-481.2,369.5-574.4,639.6l-37.3,107.1V5044.8z M8552.4,4347.7c82.3-82.3,183.2-130.4,295-142.8l86.9-9.3l-86.9-49.7c-46.6-26.4-108.7-74.5-136.6-107.1c-60.5-68.3-124.2-198.7-127.3-254.6c0-21.7-6.2-51.2-12.4-68.3c-9.3-23.3-15.5-17.1-40.4,35.7c-35.7,80.7-158.4,195.6-248.4,236c-38.8,17.1-105.6,35.7-149,40.4l-77.6,9.3l82.3,45c45,24.8,102.5,63.6,125.7,86.9c60.6,59,133.5,212.7,145.9,310.5l9.3,80.7l34.2-74.5C8471.7,4445.6,8516.7,4383.5,8552.4,4347.7z"/><path d="M7234.4,3318.5c-1.6-248.4-166.1-501.4-400.5-616.3l-118-59l107.1-9.3c145.9-10.9,254.6-49.7,361.7-128.8c110.3-82.3,177-164.6,234.4-290.3l43.5-96.2l9.3,114.9c4.7,63.7,23.3,153.7,41.9,201.8c65.2,167.7,220.4,329.1,378.8,392.8l86.9,35.7l-99.4,9.3c-260.8,24.8-478.2,173.9-591.5,406.7l-54.3,108.7V3318.5z M7471.9,2845c43.5-21.7,94.7-38.8,110.2-38.8c23.3,0,17.1-7.8-21.7-34.2c-79.2-54.3-139.7-139.7-152.1-214.2l-10.8-68.3l-34.2,54.3c-38.8,68.3-119.5,132-183.2,145.9c-91.6,20.2-93.1,23.3-28,63.7c68.3,40.4,144.4,164.6,144.4,237.5c0,34.2,6.2,29.5,46.6-35.7C7378.8,2900.9,7411.4,2872.9,7471.9,2845z"/><path d="M3368.9,3132.2c-861.6-77.6-1443.7-489-1636.2-1155c-51.2-175.4-52.8-246.8-3.1-296.5c48.1-48.1,37.3-46.6,529.4-99.3c526.3-55.9,495.2-65.2,574.4,180.1c88.5,279.4,304.3,434.7,630.3,450.2c324.5,17.1,540.2-121.1,611.7-391.2c15.5-63.7,23.3-164.6,23.3-329.1c0-232.9,0-237.5-34.2-243.7c-20.2-4.7-150.6-18.7-291.9-32.6c-990.4-96.3-1450-249.9-1799.2-599.2c-316.7-316.7-458-739-419.2-1243.5c17.1-215.8,60.5-378.8,149-555.8c60.5-121.1,97.8-172.3,206.5-281c116.4-118,155.2-144.4,296.5-212.7c242.2-116.4,336.9-135,689.3-135c178.5,1.5,332.2,9.3,388.1,20.2c329.1,71.4,552.7,192.5,861.6,468.8l138.2,124.2l65.2-96.3c111.8-166.1,226.7-302.7,340-400.5c97.8-82.3,116.4-93.1,177-93.1c52.8,0,80.7,10.9,128.9,49.7c127.3,102.5,619.4,529.4,661.3,572.8c60.6,65.2,55.9,130.4-15.5,232.9c-31,46.6-88.5,128.9-125.7,184.7c-38.8,55.9-83.8,131.9-100.9,170.8c-79.2,178.5-77.6,149-88.5,1373.9c-9.3,1082-12.4,1156.6-41.9,1288.5c-79.2,344.6-239.1,582.2-512.3,759.1C4426.1,3065.5,3879.6,3178.8,3368.9,3132.2z M4098.5,249.4c-1.6-436.2-41.9-619.4-184.7-847.6c-111.8-175.4-254.6-284.1-436.2-330.7c-254.6-65.2-492.1,45-597.7,277.9c-100.9,220.4-80.7,562,43.5,776.2c59,99.4,198.7,220.4,327.6,282.5c177,85.4,456.4,139.7,735.8,145.9l111.8,1.6V249.4z"/><path d="M6108.9-1835.5c-307.4-48.1-667.5-240.6-566.6-302.7c9.3-6.2,105.5,4.6,214.2,21.7c397.4,62.1,535.6,60.5,603.9-7.8c62.1-62.1,43.5-246.8-66.7-607c-63.7-209.6-63.7-222-15.5-222c77.6,0,242.2,243.7,318.3,475c59,175.4,90,408.3,69.9,512.3c-12.4,66.8-21.7,79.2-71.4,104C6524.9-1827.8,6253.3-1813.8,6108.9-1835.5z"/><path d="M500-1962.8c-41.9-41.9-17.1-83.8,141.3-236c726.5-703.2,1512.1-1117.7,2393.8-1262.1c243.7-38.8,816.6-38.8,1055.6,0c742.1,124.2,1496.5,465.7,1920.3,870.9c91.6,86.9,105.6,107.1,105.6,155.2c0,41.9-9.3,60.5-40.4,82.3c-46.6,29.5-21.7,37.2-321.4-94.7c-1026.1-451.7-2133-566.7-3227.5-335.3c-625.6,131.9-1259,386.6-1789.9,720.3c-102.5,65.2-194.1,118-201.8,118C526.4-1944.2,510.9-1952,500-1962.8z"/></g></g>
<style xmlns="" id="autoconsent-prehide"/></svg>